<svg width="1063" height="813" viewBox="0 0 1063 813" fill="none" xmlns="http://www.w3.org/2000/svg">
<path fill-rule="evenodd" clip-rule="evenodd" d="M267.875 544.71H654.807C656.996 544.71 659.13 544.484 661.185 544.055C663.24 544.484 665.374 544.71 667.563 544.71H888.667C905.105 544.71 918.431 531.97 918.431 516.255C918.431 500.54 905.105 487.8 888.667 487.8H863.155C846.717 487.8 833.391 475.06 833.391 459.345C833.391 443.63 846.717 430.89 863.155 430.89H943.943C960.381 430.89 973.707 418.15 973.707 402.435C973.707 386.72 960.381 373.98 943.943 373.98H850.399C866.837 373.98 880.163 361.24 880.163 345.525C880.163 329.81 866.837 317.07 850.399 317.07H578.271C594.709 317.07 608.035 304.33 608.035 288.615C608.035 272.9 594.709 260.16 578.271 260.16H335.907C319.469 260.16 306.143 272.9 306.143 288.615C306.143 304.33 319.469 317.07 335.907 317.07H165.827C149.389 317.07 136.063 329.81 136.063 345.525C136.063 361.24 149.389 373.98 165.827 373.98H272.127C288.565 373.98 301.891 386.72 301.891 402.435C301.891 418.15 288.565 430.89 272.127 430.89H102.047C85.609 430.89 72.2832 443.63 72.2832 459.345C72.2832 475.06 85.609 487.8 102.047 487.8H267.875C251.437 487.8 238.111 500.54 238.111 516.255C238.111 531.97 251.437 544.71 267.875 544.71ZM960.951 544.71C977.389 544.71 990.715 531.97 990.715 516.255C990.715 500.54 977.389 487.8 960.951 487.8C944.513 487.8 931.187 500.54 931.187 516.255C931.187 531.97 944.513 544.71 960.951 544.71Z" fill="#F0FDFA"/>
<path d="M710.085 601.62H805.447M272.129 601.62H363.351H272.129ZM217.396 601.62H246.617H217.396ZM825.432 601.62H837.645H825.432Z" stroke="#14B8A6" stroke-width="2.5" stroke-linecap="round" stroke-linejoin="round"/>
<path d="M416.695 176.026L463.891 226.647M638.223 176.026L591.027 226.647L638.223 176.026ZM527.247 158.535V226.647V158.535Z" stroke="#14B8A6" stroke-width="2.5" stroke-linecap="round" stroke-linejoin="round"/>
<path fill-rule="evenodd" clip-rule="evenodd" d="M394.575 288.615H660.778L636.939 322.801L668.725 345.592H386.629L422.388 322.801L394.575 288.615Z" fill="#F0FDFA"/>
<rect x="378.428" y="337.395" width="301.892" height="304.875" rx="2" fill="white"/>
<path fill-rule="evenodd" clip-rule="evenodd" d="M397.924 504.085V364.408C397.924 358.653 402.857 353.988 408.943 353.988L668.215 614.483C668.215 622.156 661.791 628.376 653.865 628.376H412.274C404.349 628.376 397.924 622.156 397.924 614.483V562.574V548.491V504.085ZM397.924 534.242V518.598Z" fill="#F0FDFA"/>
<path d="M382.68 505.942V353.189C382.68 346.895 388.082 341.793 394.746 341.793H670.8C675.14 341.793 678.657 345.194 678.657 349.39V626.676C678.657 635.068 671.622 641.87 662.943 641.87H398.394C389.715 641.87 382.68 635.068 382.68 626.676V569.908V554.506M382.68 538.923V521.815" stroke="#14B8A6" stroke-width="2.5" stroke-linecap="round"/>
<path d="M390.602 341.793V296.212C390.602 292.016 393.795 288.615 397.733 288.615H661.593C665.532 288.615 668.725 292.016 668.725 296.212V341.793" stroke="#14B8A6" stroke-width="2.5"/>
<path d="M464.105 421.561C471.785 421.561 478.011 415.608 478.011 408.266C478.011 400.924 471.785 394.971 464.105 394.971C456.425 394.971 450.199 400.924 450.199 408.266C450.199 415.608 456.425 421.561 464.105 421.561Z" fill="#F0FDFA" stroke="#14B8A6" stroke-width="2.5" stroke-linecap="round"/>
<path d="M595.221 421.561C602.901 421.561 609.127 415.608 609.127 408.266C609.127 400.924 602.901 394.971 595.221 394.971C587.54 394.971 581.314 400.924 581.314 408.266C581.314 415.608 587.54 421.561 595.221 421.561Z" fill="#F0FDFA" stroke="#14B8A6" stroke-width="2.5" stroke-linecap="round"/>
<path d="M593.234 421.561C593.234 455.126 564.772 482.336 529.663 482.336C494.553 482.336 466.092 455.126 466.092 421.561" stroke="#14B8A6" stroke-width="2.5" stroke-linecap="round"/>
<path d="M394.817 292.401L422.789 318.798C424.46 320.375 424.477 322.949 422.828 324.547C422.542 324.823 422.217 325.059 421.861 325.247L390.602 341.793" stroke="#14B8A6" stroke-width="2.5" stroke-linecap="round"/>
<path d="M665.183 292.677L638.417 318.776C636.773 320.379 636.799 322.953 638.476 324.524C638.756 324.787 639.072 325.011 639.417 325.19L671.252 341.793" stroke="#14B8A6" stroke-width="2.5" stroke-linecap="round"/>
</svg>
