<svg width="643" height="516" viewBox="0 0 643 516" fill="none" xmlns="http://www.w3.org/2000/svg">
<path d="M0.00134277 438.885H641.969V515.465H0.00134277V438.885Z" fill="#BADCC8"/>
<path d="M10.468 448.454H641.969V505.587H10.468V448.454Z" fill="#F5F5F5"/>
<path opacity="0.3" d="M-0.000694275 438.885H124.748V515.465H-0.000694275V438.885Z" fill="black"/>
<path d="M10.4824 460.948H12.1082H16.8925H35.3176L103.057 461.072L326.542 461.351L550.075 461.227L617.876 461.103H636.285L617.876 460.794L550.136 460.67L326.604 460.546L103.119 460.67L35.3795 460.794L16.9545 460.871H12.1701L10.4824 460.948Z" fill="#263238"/>
<path d="M10.4824 476.23C10.4824 476.23 11.0244 476.23 12.1082 476.23H16.8925H35.3176L103.057 476.354L326.542 476.478L550.075 476.354L617.876 476.385H636.285H641.07C642.154 476.385 642.711 476.385 642.711 476.385H641.07H636.285L617.876 476.076L550.136 475.936L326.604 475.828L103.119 475.936L35.3795 476.076L16.9545 476.153H12.1701C11.0243 476.199 10.4824 476.23 10.4824 476.23Z" fill="#263238"/>
<path d="M10.4824 491.512H12.1082H16.8925L35.3176 491.59L103.057 491.714L326.542 491.838L550.075 491.714L617.876 491.667L636.285 491.59L617.876 491.342L550.136 491.218L326.604 491.11L103.119 491.218L35.3795 491.342L16.9545 491.42H12.1701C11.0243 491.481 10.4824 491.512 10.4824 491.512Z" fill="#263238"/>
<path d="M124.377 514.195C124.609 514.195 124.779 497.52 124.779 477.036C124.779 456.551 124.609 439.876 124.377 439.876C124.144 439.876 123.974 456.536 123.974 477.036C123.974 497.535 124.16 514.195 124.377 514.195Z" fill="#263238"/>
<path d="M91.8783 368.033H535.846V438.885H91.8783V368.033Z" fill="#0D9488"/>
<path d="M53.2309 368.451H174.047V438.482H53.2309V368.451Z" fill="#0D9488"/>
<path d="M53.2323 378.036H162.684V428.356H53.2323V378.036Z" fill="#F5F5F5"/>
<path opacity="0.3" d="M53.2309 368.451H174.047V438.482H53.2309V368.451Z" fill="black"/>
<path d="M206.532 423.355C206.532 423.355 206.532 422.674 206.532 421.389C206.532 420.103 206.532 418.199 206.532 415.706C206.532 410.69 206.532 403.32 206.64 393.72L206.47 393.89L508.518 394.122L508.115 393.72V423.355L508.518 422.952L294.043 423.123L229.896 423.231H212.524H208.003C206.981 423.231 206.455 423.231 206.455 423.231H208.003H212.462H229.757L293.796 423.339L508.564 423.525H508.967V393.317H508.549L206.501 393.55H206.331V393.72C206.331 403.351 206.331 410.752 206.424 415.799C206.424 418.276 206.424 420.165 206.424 421.451C206.424 422.736 206.532 423.355 206.532 423.355Z" fill="#263238"/>
<path d="M173.892 438.42C174.125 438.42 174.295 422.55 174.295 402.964C174.295 383.377 174.125 367.507 173.892 367.507C173.66 367.507 173.49 383.377 173.49 402.964C173.49 422.55 173.676 438.42 173.892 438.42Z" fill="#263238"/>
<path d="M119.222 285.337H563.189V340.783H119.222V285.337Z" fill="#BADCC8"/>
<path d="M217.246 329.852C217.263 329.64 217.263 329.428 217.246 329.217C217.246 328.737 217.246 328.164 217.246 327.436C217.246 325.888 217.246 323.627 217.339 320.871C217.339 315.22 217.447 307.37 217.524 298.142L217.153 298.514H238.179L237.776 298.111V306.859C237.776 309.708 237.776 312.479 237.776 315.143C237.776 320.484 237.776 325.408 237.776 329.79L238.102 329.465L223.052 329.743H218.794C218.277 329.739 217.76 329.764 217.246 329.821C217.72 329.849 218.196 329.849 218.67 329.821L222.851 329.914L238.334 330.084H238.535V329.759C238.535 325.377 238.535 320.469 238.535 315.112C238.535 312.449 238.535 309.677 238.535 306.828V298.08L238.133 297.677H217.106H216.859V298.049C216.936 307.339 216.998 315.313 217.044 321.026C217.044 323.736 217.122 325.919 217.153 327.514C217.153 328.195 217.153 328.752 217.153 329.201C217.151 329.422 217.183 329.641 217.246 329.852Z" fill="#263238"/>
<path d="M119.221 294.023H187.703V331.524H119.221V294.023Z" fill="white"/>
<path opacity="0.3" d="M119.237 285.337H196.73V340.783H119.237V285.337Z" fill="black"/>
<path d="M197.056 340.458C197.289 340.458 197.459 328.226 197.459 313.13C197.459 298.034 197.289 285.802 197.056 285.802C196.824 285.802 196.654 298.034 196.654 313.13C196.654 328.226 196.84 340.458 197.056 340.458Z" fill="#263238"/>
<path d="M118.711 302.895C118.711 303.112 134.271 303.298 153.471 303.298C172.67 303.298 188.23 303.112 188.23 302.895C188.23 302.678 172.67 302.493 153.471 302.493C134.271 302.493 118.711 302.663 118.711 302.895Z" fill="#263238"/>
<path d="M118.711 312.712C118.711 312.944 134.271 313.114 153.471 313.114C172.67 313.114 188.23 312.944 188.23 312.712C188.23 312.479 172.67 312.309 153.471 312.309C134.271 312.309 118.711 312.541 118.711 312.712Z" fill="#263238"/>
<path d="M118.711 322.776C118.711 322.992 134.271 323.178 153.471 323.178C172.67 323.178 188.23 322.992 188.23 322.776C188.23 322.559 172.67 322.373 153.471 322.373C134.271 322.373 118.711 322.543 118.711 322.776Z" fill="#263238"/>
<path d="M43.0443 340.783H487.012V368.142H43.0443V340.783Z" fill="#BADCC8"/>
<path d="M43.0589 344.22H142.307V364.937H43.0589V344.22Z" fill="#E0E0E0"/>
<path opacity="0.3" d="M43.0594 340.783H147.912V368.142H43.0594V340.783Z" fill="black"/>
<path d="M147.913 368.142C148.3 363.766 148.424 359.371 148.284 354.981C148.406 350.589 148.256 346.194 147.835 341.82C147.449 346.196 147.33 350.591 147.479 354.981C147.358 359.373 147.503 363.767 147.913 368.142Z" fill="#263238"/>
<path d="M187.719 351.327H455.1V357.861H187.719V351.327Z" fill="#E0E0E0"/>
<path d="M158.703 367.925C158.703 368.157 232.28 368.328 323.012 368.328C413.744 368.328 487.336 368.157 487.336 367.925C487.336 367.693 413.775 367.522 323.012 367.522C232.249 367.522 158.703 367.708 158.703 367.925Z" fill="#263238"/>
<path d="M146.813 368.064C146.813 368.281 220.389 368.467 311.121 368.467C401.853 368.467 475.43 368.281 475.43 368.064C475.43 367.847 401.869 367.662 311.106 367.662C220.343 367.662 146.813 367.832 146.813 368.064Z" fill="#263238"/>
<path d="M43.0438 340.582C43.0438 340.814 139.861 340.984 259.237 340.984C378.613 340.984 475.43 340.814 475.43 340.582C475.43 340.349 378.644 340.179 259.221 340.179C139.799 340.179 43.0438 340.365 43.0438 340.582Z" fill="#263238"/>
<path d="M90.0201 285.136L92.7607 321.522C92.7607 321.522 58.6975 336.572 58.5117 343.338L125.508 340.473L123.433 283.603L90.0201 285.136Z" fill="#263238"/>
<path d="M113.369 317.558C114.039 317.762 114.613 318.199 114.988 318.789C115.363 319.38 115.514 320.086 115.413 320.778C115.288 321.455 114.905 322.057 114.344 322.455C113.783 322.854 113.089 323.019 112.409 322.915C111.706 322.694 111.104 322.23 110.713 321.606C110.321 320.982 110.165 320.238 110.272 319.509C110.369 319.164 110.532 318.842 110.754 318.562C110.975 318.281 111.25 318.047 111.562 317.872C111.875 317.698 112.218 317.588 112.574 317.547C112.929 317.506 113.289 317.536 113.632 317.635" fill="#E0E0E0"/>
<path d="M125.508 340.473L125.09 334.744L60.9425 339.637C60.9425 339.637 58.0162 341.185 58.4343 343.338L125.508 340.473Z" fill="#0D9488"/>
<path d="M91.6611 321.196C91.6611 321.552 93.3333 321.63 94.99 322.745C96.6467 323.859 97.5603 325.191 97.8544 325.052C98.1486 324.912 97.5912 322.915 95.5629 321.692C93.5346 320.469 91.5837 320.887 91.6611 321.196Z" fill="white"/>
<path d="M84.7563 324.572C84.7563 324.913 86.1343 325.439 87.3111 326.848C88.4878 328.257 88.8594 329.79 89.2 329.759C89.5407 329.728 89.6491 327.777 88.1627 326.043C86.6763 324.309 84.7563 324.247 84.7563 324.572Z" fill="white"/>
<path d="M81.1321 333.629C81.4263 333.629 81.8134 331.942 80.8999 330.084C79.9864 328.226 78.4071 327.544 78.2832 327.839C78.1593 328.133 79.1503 329.093 79.8315 330.641C80.5128 332.189 80.807 333.598 81.1321 333.629Z" fill="white"/>
<path d="M91.9078 312.836C92.0626 313.145 93.5335 312.603 95.3915 312.665C97.2495 312.727 98.7204 313.269 98.8752 312.959C99.0301 312.65 97.6056 311.411 95.407 311.411C93.2084 311.411 91.7374 312.572 91.9078 312.836Z" fill="white"/>
<path d="M100.224 164.986C80.0958 161.502 57.3972 181.228 60.9429 206.791C64.0396 229.164 84.013 310.916 84.013 310.916L116.373 295.216L107.238 193.769L100.224 164.986Z" fill="#263238"/>
<path d="M185.289 283.603L121.374 245.576L120.259 227.306L185.289 283.603Z" fill="#0D9488"/>
<path d="M256.077 223.389L259.483 235.621C264.655 254.2 261.388 270.396 249.373 285.539H248.986L188.926 286.003C171.755 278.509 122.472 232.013 122.472 232.013L127.876 312.526L84.3676 315.87C84.3676 315.87 78.1743 227.91 74.799 207.116C71.4236 186.322 83.129 164.862 100.579 166.364C118.028 167.866 255.133 219.998 256.077 223.389Z" fill="#263238"/>
<path d="M100.58 166.333C100.447 166.313 100.311 166.313 100.178 166.333H99.0163C97.5054 166.389 96.0075 166.633 94.5571 167.06C89.2733 168.893 84.6543 172.256 81.2879 176.722C78.8614 179.707 76.9941 183.106 75.7759 186.755C74.4245 190.947 73.684 195.312 73.5772 199.715C73.5932 204.554 73.8931 209.388 74.4753 214.192C74.9553 219.193 75.4507 224.364 76.0236 229.675C78.2068 250.825 80.1886 269.931 81.6441 283.866C82.3098 290.756 82.8363 296.361 83.1924 300.309C83.3782 302.198 83.5175 303.7 83.6259 304.784C83.6259 305.249 83.6724 305.636 83.7653 305.945C83.7491 306.074 83.7491 306.204 83.7653 306.332C83.7828 306.199 83.7828 306.064 83.7653 305.93C83.7653 305.62 83.7653 305.233 83.7653 304.769C83.7653 303.685 83.6104 302.183 83.4865 300.279C83.2078 296.392 82.7743 290.756 82.155 283.82C80.9473 269.885 78.919 250.748 76.7823 229.628C76.2713 224.333 75.7604 219.162 75.234 214.145C74.6531 209.377 74.3429 204.58 74.305 199.777C74.3891 195.441 75.093 191.139 76.3952 187.003C77.5553 183.409 79.3602 180.056 81.7215 177.109C84.9861 172.682 89.4749 169.307 94.6345 167.401C96.5546 166.76 98.5571 166.401 100.58 166.333Z" fill="#0D9488"/>
<path d="M108.568 212.566C108.398 212.752 112.656 216.638 116.712 222.429C120.769 228.219 123.029 233.515 123.262 233.406C122.977 232.173 122.534 230.981 121.946 229.861C120.634 227.096 119.08 224.454 117.301 221.964C115.548 219.469 113.574 217.137 111.402 214.997C110.57 214.063 109.617 213.245 108.568 212.566Z" fill="#0D9488"/>
<path d="M99.7905 42.6061C98.2022 43.3862 96.38 43.5456 94.6803 43.0533C92.9806 42.5609 91.5257 41.4522 90.6002 39.944C89.6747 38.4357 89.3452 36.6364 89.6761 34.8981C90.007 33.1597 90.9746 31.6074 92.3895 30.5446C90.9869 29.8579 89.8376 28.745 89.1058 27.3654C88.3741 25.9857 88.0976 24.41 88.3158 22.8636C88.534 21.3172 89.2358 19.8795 90.3207 18.7562C91.4056 17.6329 92.818 16.8815 94.3559 16.6097C93.9122 15.1434 93.8557 13.5873 94.1919 12.0927C94.5282 10.5981 95.2457 9.21605 96.2747 8.0811C97.3036 6.94615 98.6089 6.09697 100.063 5.61624C101.518 5.13551 103.072 5.03961 104.575 5.33787C105.739 3.44284 107.505 1.99237 109.59 1.21784C111.675 0.443306 113.96 0.389319 116.079 1.06449C117.396 0.306005 118.923 -0.0081268 120.432 0.168602C121.942 0.345332 123.355 1.00352 124.461 2.04573C125.568 3.08793 126.309 4.45875 126.576 5.95521C126.842 7.45166 126.62 8.99421 125.942 10.3544" fill="#263238"/>
<path d="M119.84 7.19575L118.292 7.72218C111.147 10.2503 105.215 15.3742 101.675 22.0754C98.1353 28.7766 97.2465 36.5646 99.1854 43.8911C102.901 58.0428 107.19 73.6345 109.884 81.051C115.443 96.2865 131.561 93.2982 131.561 93.2982L136.717 112.126L173.428 97.9432L153.299 30.1574C149.088 13.7297 136.067 2.55077 119.84 7.19575Z" fill="#AE7461"/>
<path d="M131.407 93.2518C138.512 90.7661 144.752 86.2888 149.383 80.3542C149.383 80.3542 148.485 93.6544 132.738 97.6336L131.407 93.2518Z" fill="#6F4439"/>
<path d="M109.932 58.1357C110.13 58.7047 110.541 59.1753 111.077 59.4493C111.614 59.7234 112.235 59.7797 112.812 59.6066C113.097 59.528 113.363 59.3937 113.596 59.2114C113.828 59.0291 114.022 58.8024 114.166 58.5446C114.31 58.2867 114.402 58.0028 114.435 57.7094C114.468 57.4159 114.443 57.1187 114.361 56.8351C114.163 56.2666 113.752 55.7971 113.215 55.5255C112.678 55.254 112.056 55.2017 111.481 55.3796C111.197 55.4564 110.931 55.5891 110.698 55.7699C110.466 55.9507 110.272 56.176 110.128 56.4326C109.984 56.6892 109.892 56.972 109.859 57.2644C109.825 57.5569 109.85 57.853 109.932 58.1357Z" fill="#263238"/>
<path d="M105.069 50.2237C105.441 50.4095 106.617 48.5979 109.017 47.7928C111.417 46.9877 113.492 47.5451 113.662 47.158C113.833 46.7709 113.291 46.5696 112.346 46.2909C111.076 45.923 109.723 45.9609 108.475 46.3993C107.252 46.833 106.196 47.64 105.456 48.7063C104.945 49.496 104.883 50.1463 105.069 50.2237Z" fill="#263238"/>
<path d="M129.425 52.4067C129.623 52.9753 130.034 53.4447 130.571 53.7162C131.108 53.9878 131.73 54.0401 132.305 53.8622C132.589 53.7854 132.855 53.6527 133.087 53.4719C133.32 53.2911 133.513 53.0658 133.658 52.8092C133.802 52.5526 133.893 52.2698 133.927 51.9774C133.961 51.685 133.936 51.3888 133.853 51.1061C133.655 50.5371 133.245 50.0665 132.709 49.7925C132.172 49.5184 131.55 49.4621 130.973 49.6352C130.687 49.7119 130.42 49.8451 130.186 50.0269C129.953 50.2088 129.758 50.4356 129.614 50.694C129.469 50.9523 129.378 51.237 129.346 51.5312C129.314 51.8254 129.34 52.1231 129.425 52.4067Z" fill="#263238"/>
<path d="M128.325 42.544C128.697 42.7453 129.873 40.9957 132.273 40.1132C134.673 39.2306 136.748 39.8654 136.918 39.4938C137.088 39.1222 136.547 38.9055 135.602 38.6268C134.338 38.2754 132.997 38.3241 131.762 38.7661C130.544 39.2002 129.489 40.0007 128.743 41.0577C128.201 41.8628 128.139 42.4666 128.325 42.544Z" fill="#263238"/>
<path d="M125.91 62.9665C124.537 63.021 123.175 63.2393 121.854 63.6168C121.219 63.7716 120.615 63.8491 120.305 63.4775C120.039 62.8745 119.963 62.2046 120.088 61.5575C120.088 59.9163 120.197 58.1822 120.259 56.3706C120.445 49.0006 120.352 43.0241 120.042 43.0086C119.732 42.9931 119.361 48.9851 119.175 56.3551C119.175 58.1667 119.175 59.9008 119.097 61.5421C118.975 62.3972 119.156 63.2681 119.608 64.0039C119.767 64.1907 119.967 64.3372 120.194 64.4314C120.42 64.5256 120.665 64.5648 120.909 64.5458C121.272 64.5142 121.631 64.4415 121.977 64.329C123.342 64.0473 124.664 63.5892 125.91 62.9665Z" fill="#263238"/>
<path d="M123.108 34.2295C123.618 34.7095 125.415 33.3625 127.861 32.4025C130.307 31.4425 132.506 31.1329 132.506 30.4361C132.506 30.111 131.871 29.7239 130.818 29.5691C129.464 29.3889 128.085 29.5705 126.824 30.0955C125.561 30.5736 124.453 31.3873 123.618 32.4489C123.03 33.285 122.875 34.0127 123.108 34.2295Z" fill="#263238"/>
<path d="M101.555 40.5623C102.237 40.9339 103.971 39.6952 106.309 38.8436C108.647 37.992 110.737 37.6979 110.954 36.9856C111.047 36.645 110.551 36.2115 109.514 36.0102C108.102 35.7968 106.66 35.9624 105.333 36.4902C103.99 36.9688 102.802 37.8037 101.896 38.9056C101.323 39.7417 101.246 40.3919 101.555 40.5623Z" fill="#263238"/>
<path d="M98.1639 36.3661C98.1639 36.3661 98.8297 25.3729 102.67 21.5176C107.315 16.8726 111.867 22.1369 116.604 18.7771C121.342 15.4172 125.894 11.0354 132.738 13.1566C140.278 15.572 138.591 19.7216 141.347 26.3794C152.495 53.3667 160.236 59.3742 157.124 45.9193C156.784 44.4483 160.329 41.9246 158.812 35.7313C156.83 27.68 153.811 18.1423 150.141 13.2186C147.045 9.08455 143.267 6.8085 137.275 4.93503C127.799 1.96224 117.441 5.46146 110.69 8.63553C103.939 11.8096 93.3177 24.5988 98.1639 36.3661Z" fill="#263238"/>
<path d="M156.072 45.8419C155.891 45.2728 155.828 44.6727 155.888 44.0786C155.947 43.4844 156.127 42.9087 156.417 42.3867C156.707 41.8647 157.101 41.4075 157.574 41.0431C158.047 40.6788 158.59 40.4149 159.168 40.2679C162.126 39.5402 165.857 40.0511 167.746 45.9967C171.075 56.5718 159.772 57.7485 159.664 57.4543C159.555 57.1601 157.419 50.2856 156.072 45.8419Z" fill="#AE7461"/>
<path d="M160.685 52.7474C160.685 52.7474 160.902 52.7474 161.258 52.8558C161.757 52.909 162.258 52.7645 162.652 52.4532C163.195 51.8031 163.555 51.0205 163.697 50.1853C163.838 49.3502 163.755 48.4925 163.457 47.6998C163.208 46.78 162.747 45.9314 162.11 45.2225C161.907 44.9243 161.635 44.6797 161.316 44.5098C160.998 44.3399 160.643 44.2497 160.283 44.2471C160.053 44.2592 159.835 44.3508 159.665 44.5062C159.496 44.6615 159.386 44.871 159.354 45.0987C159.354 45.4393 159.447 45.6251 159.354 45.6561C159.261 45.687 159.06 45.5632 159.013 45.0987C158.983 44.8149 159.054 44.5297 159.214 44.2935C159.435 43.9835 159.769 43.7722 160.143 43.7051C160.606 43.6549 161.073 43.7239 161.502 43.9055C161.93 44.0871 162.304 44.3752 162.59 44.7425C163.321 45.5162 163.853 46.457 164.138 47.4831C164.742 49.6352 164.293 51.9732 162.899 52.9022C162.641 53.0765 162.346 53.1894 162.038 53.2324C161.729 53.2753 161.415 53.2471 161.119 53.15C160.778 52.9951 160.654 52.7784 160.685 52.7474Z" fill="#6F4439"/>
<path d="M148.733 25.6518C147.821 27.1452 146.548 28.3856 145.032 29.2594C144.259 29.6699 143.363 29.7879 142.51 29.5916C141.657 29.3954 140.903 28.8981 140.387 28.1911C140 27.4943 139.892 26.6427 139.21 26.1937C138.529 25.7447 137.43 26.3021 136.578 26.7046C133.652 28.0981 128.929 25.9924 127.118 23.2983C126.915 24.0038 126.452 24.6065 125.824 24.9855C125.195 25.3645 124.446 25.4919 123.727 25.3421C122.559 25.0772 121.444 24.6165 120.429 23.9796C119.818 23.5611 119.115 23.2949 118.38 23.2033C117.644 23.1117 116.898 23.1974 116.202 23.4531C115.474 23.8247 114.917 24.537 114.112 24.7383C112.688 25.1099 111.464 23.7319 110.768 22.4467C110.071 21.1616 109.374 19.6133 107.95 19.3501C106.587 19.2927 105.248 19.7207 104.172 20.5578C102.98 21.1926 101.23 21.4558 100.487 20.341C100.312 20.0305 100.204 19.687 100.17 19.3325C100.135 18.978 100.174 18.6202 100.285 18.2817C100.69 16.7184 101.61 15.3374 102.897 14.3623C104.184 13.3871 105.762 12.8751 107.377 12.909C107.27 10.9831 107.738 9.0688 108.721 7.40962C109.705 5.75043 111.16 4.42134 112.902 3.59139C114.643 2.76144 116.591 2.46813 118.5 2.74877C120.408 3.02941 122.19 3.87132 123.619 5.16742C124.375 3.77089 125.457 2.57756 126.773 1.68889C128.089 0.800225 129.6 0.242494 131.178 0.0631203C132.756 -0.116253 134.354 0.0880365 135.836 0.658615C137.318 1.22919 138.64 2.14919 139.69 3.34039C140.854 2.55649 142.223 2.13153 143.626 2.11822C145.03 2.1049 146.406 2.50381 147.585 3.26549C148.764 4.02716 149.693 5.11809 150.258 6.40299C150.822 7.68789 150.997 9.11024 150.761 10.4937C151.9 10.6357 152.984 11.0638 153.912 11.7379C154.841 12.4121 155.584 13.3103 156.072 14.349C156.877 16.5012 155.514 19.3965 153.238 19.5669C153.967 20.2705 154.398 21.2263 154.444 22.2382C154.49 23.25 154.147 24.2411 153.485 25.0079C152.824 25.7747 151.893 26.259 150.886 26.3615C149.878 26.464 148.869 26.1768 148.067 25.5589" fill="#263238"/>
<path d="M107.701 16.1914C107.716 16.2622 107.742 16.3301 107.779 16.3927C107.854 16.5742 107.942 16.7502 108.042 16.9191C108.431 17.5805 108.928 18.1719 109.513 18.6687C110.427 19.4614 111.514 20.0288 112.687 20.3254C114.225 20.7355 115.854 20.6377 117.332 20.0467L117.069 19.8764C117.076 20.4037 117.188 20.9244 117.398 21.4082C117.607 21.892 117.912 22.3292 118.292 22.6944C119.088 23.4712 119.996 24.1236 120.986 24.6298C121.469 24.9538 121.989 25.2189 122.534 25.4194C123.486 25.6663 124.494 25.5647 125.377 25.1331C126.26 24.7015 126.96 23.9683 127.35 23.066H126.916C127.442 24.1026 128.179 25.0172 129.081 25.7507C129.982 26.4842 131.028 27.0201 132.15 27.3239C133.391 27.7338 134.732 27.7338 135.974 27.3239C137.108 26.8585 138.155 26.2041 139.071 25.3885H138.761C139.744 26.4665 140.986 27.2764 142.368 27.7419C143.012 27.9916 143.703 28.0947 144.391 28.0438C145.08 27.993 145.748 27.7893 146.348 27.4477C147.364 26.828 148.176 25.9247 148.685 24.849C149.194 23.7733 149.377 22.5723 149.212 21.3938L149.011 21.5796C150.316 21.785 151.653 21.5276 152.789 20.8519C153.639 20.3623 154.361 19.6777 154.894 18.8545C155.231 18.3371 155.477 17.7664 155.622 17.1668C155.649 16.9561 155.649 16.7428 155.622 16.532C155.429 17.3187 155.104 18.0672 154.662 18.7461C154.118 19.5224 153.403 20.1633 152.572 20.6196C151.486 21.2293 150.225 21.453 148.995 21.2544H148.763V21.4867C148.902 22.5911 148.718 23.7121 148.235 24.7147C147.751 25.7173 146.989 26.5589 146.038 27.1381C145.487 27.4455 144.873 27.6246 144.243 27.6622C143.613 27.6997 142.983 27.5947 142.399 27.3548C141.095 26.9016 139.924 26.1299 138.993 25.1098L138.838 24.9549L138.668 25.0943C137.781 25.8704 136.771 26.4931 135.68 26.9368C134.534 27.317 133.296 27.317 132.15 26.9368C131.092 26.651 130.105 26.1464 129.255 25.4556C128.404 24.7649 127.707 23.9033 127.21 22.9266L126.963 22.4621L126.777 22.9576C126.547 23.4933 126.19 23.965 125.736 24.3319C125.283 24.6988 124.748 24.9498 124.176 25.0633C123.631 25.1953 123.063 25.1953 122.519 25.0633C121.977 24.8731 121.458 24.6238 120.971 24.3201C120.011 23.8408 119.129 23.2197 118.354 22.4776C118.004 22.1514 117.723 21.759 117.526 21.323C117.329 20.8871 117.221 20.4164 117.208 19.9384V19.6596L116.945 19.768C115.524 20.3642 113.949 20.4837 112.455 20.1087C111.321 19.8285 110.263 19.2996 109.358 18.5603C108.683 17.864 108.124 17.0642 107.701 16.1914Z" fill="#0D9488"/>
<path d="M128.605 70.7699C128.605 70.3674 131.314 70.1041 133.064 67.5494C134.814 64.9947 134.241 62.0683 134.612 62.0219C134.984 61.9754 135.216 62.6257 135.355 63.8644C135.534 65.4994 135.128 67.1448 134.21 68.5094C133.333 69.8094 131.983 70.7151 130.447 71.0331C129.379 71.1725 128.605 70.9712 128.605 70.7699Z" fill="#263238"/>
<path d="M168.117 81.02C168.117 81.02 194.439 79.6575 206.175 94.0724C216.502 106.784 261.76 218.852 261.76 237.138C261.76 255.424 221.101 239.507 205.308 231.192C189.515 222.878 145.48 182.962 145.48 182.962C145.48 182.962 144.737 178.162 143.932 174.013C143.127 169.863 135.695 141.126 134.828 131C134.162 123.15 135.509 106.056 135.509 106.056C151.318 103.115 168.117 81.02 168.117 81.02Z" fill="#BADCC8"/>
<path d="M22.7448 140.398L22.9151 139.423L24.1692 139.732L40.3957 108.24L114.777 140.305L91.3821 170.606L22.7448 140.398Z" fill="#BADCC8"/>
<g opacity="0.3">
<path d="M62.6141 151.856L74.2266 131.108L50.3204 120.533L38.0267 141.947L62.6141 151.856Z" fill="white"/>
</g>
<path d="M132.352 161.239L118.866 154.302C118.866 154.302 111 136.109 105.999 132.858C100.998 129.606 93.1634 130.984 93.1634 130.984L100.301 136.311C100.301 136.311 105.055 142.752 100.487 143.774C95.9194 144.795 72.1061 133.059 68.7772 133.4C65.4483 133.74 68.932 139.732 68.932 139.732C68.932 139.732 64.4574 141.033 68.4056 146.53C68.2613 147.827 68.4533 149.139 68.9631 150.34C69.4729 151.541 70.2834 152.591 71.3165 153.389C80.2348 159.814 98.4587 166.906 100.363 168.02C103.026 169.569 124.734 181.228 124.734 181.228L132.352 161.239Z" fill="#AE7461"/>
<path d="M68.9313 139.732C69.6513 140.462 70.4695 141.087 71.3622 141.59C72.9105 142.659 75.1246 144.068 77.6484 145.477C79.8023 146.695 82.0312 147.776 84.3217 148.713C85.2467 149.163 86.2326 149.476 87.248 149.642C87.248 149.409 83.0366 147.598 77.9581 144.78C75.0414 142.938 72.0281 141.253 68.9313 139.732Z" fill="#6F4439"/>
<path d="M67.7711 145.601C70.0425 148.075 72.6985 150.166 75.6366 151.794C78.442 153.632 81.5196 155.017 84.7563 155.897C84.8492 155.665 80.7306 153.946 76.0547 151.113C71.3787 148.279 67.926 145.492 67.7711 145.601Z" fill="#6F4439"/>
<path d="M39.3281 110.33L36.8198 109.246L28.6756 124.544L27.1583 124.249L25.8422 125.349L22.9158 139.423L24.17 139.733L39.3281 110.33Z" fill="#E0E0E0"/>
<path d="M23.3182 138.835C25.9519 134.152 28.3497 129.341 30.5025 124.42C32.9048 119.614 35.0598 114.689 36.959 109.664C34.3253 114.346 31.9276 119.157 29.7748 124.079C25.9504 132.13 23.055 138.742 23.3182 138.835Z" fill="#263238"/>
<path d="M125.059 157.414L163.458 171.04C163.458 171.04 163.226 119.589 166.291 100.761C169.512 80.9891 209.552 79.1775 210.233 112.436C210.233 115.764 212.462 172.371 205.077 194.327C197.691 216.282 186.776 219.951 171.014 214.966C155.252 209.98 111.419 178.797 111.419 178.797L125.059 157.414Z" fill="#BADCC8"/>
<path d="M125.058 157.414C125.058 157.414 124.748 157.848 124.144 158.762L121.497 162.818L111.231 178.688L111.123 178.843L111.278 178.952C118.059 183.782 126.575 189.682 136.686 196.262C141.733 199.544 147.184 202.997 153.083 206.45C156.024 208.169 159.09 209.903 162.295 211.528C163.844 212.396 165.562 213.077 167.234 213.897C168.965 214.628 170.739 215.254 172.545 215.771C176.271 216.922 180.172 217.399 184.065 217.18C188.166 216.855 192.043 215.177 195.089 212.411C198.148 209.52 200.605 206.052 202.319 202.208C204.158 198.309 205.62 194.245 206.686 190.069C208.545 181.324 209.699 172.444 210.138 163.515C210.711 154.411 210.944 145.074 210.975 135.645C210.975 127.454 210.882 119.388 210.572 111.445C210.443 107.458 209.555 103.532 207.955 99.8786C206.349 96.2838 203.849 93.1601 200.694 90.8054C197.595 88.6221 194.042 87.1677 190.302 86.551C186.562 85.9343 182.73 86.1713 179.095 87.2443C175.556 88.2233 172.347 90.1381 169.805 92.7873C168.608 94.1186 167.626 95.6283 166.894 97.262C166.256 98.8909 165.844 100.6 165.671 102.34C164.757 109.107 164.385 115.687 164.122 122.004C163.859 128.321 163.627 134.391 163.503 140.151C163.24 151.701 163.193 162.09 163.224 171.117L163.549 170.885L135.138 160.945L127.644 158.343L125.724 157.693L125.073 157.492L125.739 157.755L127.675 158.467L135.184 161.192L163.394 171.349L163.704 171.458V171.117C163.704 162.106 163.813 151.717 164.122 140.151C164.262 134.391 164.463 128.337 164.788 122.02C165.113 115.703 165.516 109.153 166.445 102.433C166.622 100.751 167.022 99.1008 167.637 97.5252C168.332 95.9693 169.267 94.5324 170.408 93.2673C172.855 90.7338 175.934 88.9002 179.327 87.9565C182.85 86.9249 186.56 86.7011 190.182 87.3015C193.803 87.902 197.243 89.3114 200.245 91.4248C203.288 93.6994 205.698 96.7167 207.243 100.188C208.797 103.751 209.663 107.576 209.798 111.46C210.092 119.372 210.2 127.454 210.185 135.63C210.185 145.105 209.922 154.426 209.349 163.499C208.918 172.38 207.784 181.212 205.958 189.914C204.896 194.038 203.456 198.055 201.654 201.913C199.99 205.672 197.596 209.061 194.609 211.885C191.686 214.556 187.963 216.189 184.018 216.53C180.21 216.743 176.394 216.282 172.746 215.167C170.974 214.658 169.232 214.048 167.529 213.34C165.856 212.55 164.184 211.792 162.605 211.002C159.415 209.454 156.412 207.673 153.408 205.955C147.524 202.533 142.059 199.111 136.996 195.844C126.869 189.325 118.323 183.457 111.51 178.704V178.967C115.876 172.031 119.252 166.689 121.559 163.05C122.689 161.239 123.541 159.861 124.144 158.916L125.058 157.414Z" fill="#263238"/>
<path d="M174.465 190.549C174.292 189.427 173.969 188.333 173.505 187.297C172.586 184.788 171.484 182.351 170.207 180.004C168.934 177.658 167.446 175.434 165.763 173.362C165.106 172.461 164.318 171.662 163.425 170.993C163.239 171.148 166.522 174.941 169.526 180.391C172.529 185.842 174.217 190.641 174.465 190.549Z" fill="#263238"/>
<path d="M583.72 424.067C583.456 424.284 582.326 423.185 580.623 422.519C578.92 421.853 577.341 421.698 577.325 421.358C577.31 421.017 579.09 420.537 581.103 421.358C583.116 422.178 583.983 423.897 583.72 424.067Z" fill="white"/>
<path d="M533.199 457.14C533.431 457.294 534.747 455.158 537.426 454.291C539.092 453.883 540.819 453.788 542.52 454.012C542.52 453.919 542.071 453.501 541.08 453.222C539.771 452.907 538.401 452.967 537.125 453.394C535.849 453.821 534.719 454.599 533.864 455.638C533.245 456.458 533.09 457.093 533.199 457.14Z" fill="white"/>
<path d="M535.49 463.318C536.821 462.799 538.181 462.355 539.562 461.986C540.985 461.895 542.412 461.895 543.835 461.986C543.99 461.769 542.039 460.577 539.407 461.011C536.775 461.444 535.288 463.178 535.49 463.318Z" fill="white"/>
</svg>
