<svg width="994" height="774" viewBox="0 0 994 774" fill="none" xmlns="http://www.w3.org/2000/svg">
<path fill-rule="evenodd" clip-rule="evenodd" d="M250.488 518.58H612.304C614.351 518.58 616.346 518.365 618.268 517.957C620.189 518.365 622.185 518.58 624.232 518.58H830.984C846.355 518.58 858.816 506.451 858.816 491.49C858.816 476.529 846.355 464.4 830.984 464.4H807.128C791.757 464.4 779.296 452.271 779.296 437.31C779.296 422.349 791.757 410.22 807.128 410.22H882.672C898.043 410.22 910.504 398.091 910.504 383.13C910.504 368.169 898.043 356.04 882.672 356.04H795.2C810.571 356.04 823.032 343.911 823.032 328.95C823.032 313.989 810.571 301.86 795.2 301.86H540.736C556.107 301.86 568.568 289.731 568.568 274.77C568.568 259.809 556.107 247.68 540.736 247.68H314.104C298.733 247.68 286.272 259.809 286.272 274.77C286.272 289.731 298.733 301.86 314.104 301.86H155.064C139.693 301.86 127.232 313.989 127.232 328.95C127.232 343.911 139.693 356.04 155.064 356.04H254.464C269.835 356.04 282.296 368.169 282.296 383.13C282.296 398.091 269.835 410.22 254.464 410.22H95.4238C80.0526 410.22 67.5918 422.349 67.5918 437.31C67.5918 452.271 80.0526 464.4 95.4238 464.4H250.488C235.117 464.4 222.656 476.529 222.656 491.49C222.656 506.451 235.117 518.58 250.488 518.58ZM898.576 518.58C913.947 518.58 926.408 506.451 926.408 491.49C926.408 476.529 913.947 464.4 898.576 464.4C883.205 464.4 870.744 476.529 870.744 491.49C870.744 506.451 883.205 518.58 898.576 518.58Z" fill="#F0FDFA"/>
<path d="M685.859 174.15V197.37" stroke="#14B8A6" stroke-width="2.5" stroke-linecap="round" stroke-linejoin="round"/>
<path d="M685.859 228.33V251.55" stroke="#14B8A6" stroke-width="2.5" stroke-linecap="round" stroke-linejoin="round"/>
<path d="M646.1 212.85H669.956" stroke="#14B8A6" stroke-width="2.5" stroke-linecap="round" stroke-linejoin="round"/>
<path d="M701.764 212.85H725.62" stroke="#14B8A6" stroke-width="2.5" stroke-linecap="round" stroke-linejoin="round"/>
<path d="M355.853 572.76V588.24" stroke="#14B8A6" stroke-width="2.5" stroke-linecap="round" stroke-linejoin="round"/>
<path d="M355.853 619.2V634.68" stroke="#14B8A6" stroke-width="2.5" stroke-linecap="round" stroke-linejoin="round"/>
<path d="M324.045 603.72H339.949" stroke="#14B8A6" stroke-width="2.5" stroke-linecap="round" stroke-linejoin="round"/>
<path d="M371.758 603.72H387.662" stroke="#14B8A6" stroke-width="2.5" stroke-linecap="round" stroke-linejoin="round"/>
<path fill-rule="evenodd" clip-rule="evenodd" d="M638.988 507.459C644.517 500.868 649.488 493.975 653.898 486.841C663.598 471.15 670.59 454.293 674.863 436.913C679.185 419.336 680.726 401.224 679.475 383.244C678.384 367.555 675.167 351.967 669.818 336.921C664.51 321.995 657.104 307.603 647.592 294.178C641.923 286.178 635.507 278.522 628.342 271.301C617.822 260.699 606.282 251.635 594.022 244.114C580.848 236.034 566.842 229.736 552.371 225.228C534.249 219.581 515.399 216.741 496.546 216.72C481.877 216.704 467.207 218.395 452.876 221.799C436.742 225.632 421.039 231.636 406.254 239.821C393.256 247.016 380.968 255.896 369.72 266.468C355.584 279.752 344.134 294.728 335.38 310.755C326.809 326.447 320.823 343.146 317.43 360.253C313.934 377.878 313.191 395.936 315.213 413.772C317.832 436.888 325.095 459.631 337.023 480.571C344.655 493.97 354.198 506.63 365.657 518.179C383.849 536.513 405.088 550.247 427.835 559.352C455.498 570.425 485.392 574.654 514.751 571.985C539.392 569.746 563.655 562.649 585.907 550.663" fill="white"/>
<path d="M638.988 507.459C644.517 500.868 649.488 493.975 653.898 486.841C663.598 471.15 670.59 454.293 674.863 436.913C679.185 419.336 680.726 401.224 679.475 383.244C678.384 367.555 675.167 351.967 669.818 336.921C664.51 321.995 657.104 307.603 647.592 294.178C641.923 286.178 635.507 278.522 628.342 271.301C617.822 260.699 606.282 251.635 594.022 244.114C580.848 236.034 566.842 229.736 552.371 225.228C534.249 219.581 515.399 216.741 496.546 216.72C481.877 216.704 467.207 218.395 452.876 221.799C436.742 225.632 421.039 231.636 406.254 239.821C393.256 247.016 380.968 255.896 369.72 266.468C355.584 279.752 344.134 294.728 335.38 310.755C326.809 326.447 320.823 343.146 317.43 360.253C313.934 377.878 313.191 395.936 315.213 413.772C317.832 436.888 325.095 459.631 337.023 480.571C344.655 493.97 354.198 506.63 365.657 518.179C383.849 536.513 405.088 550.247 427.835 559.352C455.498 570.425 485.392 574.654 514.751 571.985C539.392 569.746 563.655 562.649 585.907 550.663" stroke="#14B8A6" stroke-width="2.5" stroke-linecap="round" stroke-linejoin="round"/>
<path fill-rule="evenodd" clip-rule="evenodd" d="M599.188 543.264C610.743 536.026 621.016 526.997 627.699 519.707Z" fill="white"/>
<path d="M599.188 543.264C610.743 536.026 621.016 526.997 627.699 519.707" stroke="#14B8A6" stroke-width="2.5" stroke-linecap="round"/>
<path d="M663.992 404.868C662.854 404.887 661.715 404.897 660.573 404.897C560.164 404.897 477.949 328.703 471.06 232.2C391.14 244.47 330.008 312.125 330.008 393.747C330.008 484.064 404.858 557.28 497.19 557.28C585.701 557.28 658.147 489.998 663.992 404.868Z" fill="#F0FDFA"/>
<path fill-rule="evenodd" clip-rule="evenodd" d="M433.477 388.443C428.613 384.072 421.068 384.407 416.625 389.193C412.182 393.979 412.523 401.402 417.387 405.774L473.524 456.23C480.334 462.351 490.896 461.881 497.116 455.181C497.377 454.896 497.376 454.896 497.627 454.604L577.739 359.8C581.951 354.816 581.259 347.416 576.194 343.272C571.128 339.128 563.607 339.809 559.396 344.793L484.078 433.924L433.477 388.443Z" fill="white" stroke="#14B8A6" stroke-width="2.5" stroke-linecap="round"/>
<path fill-rule="evenodd" clip-rule="evenodd" d="M440.636 249.286C432.881 252.115 425.306 255.553 417.989 259.602C406.617 265.895 395.867 273.662 386.028 282.91C381.995 286.701 378.212 290.65 374.679 294.736M363.741 308.972C360.933 313.105 358.349 317.341 355.989 321.665C354.246 324.858 352.625 328.1 351.127 331.382" fill="white"/>
<path d="M441.082 250.441C441.737 250.202 442.068 249.491 441.822 248.854C441.576 248.216 440.846 247.893 440.191 248.131L441.082 250.441ZM417.989 259.602L418.615 260.674L417.989 259.602ZM386.028 282.91L385.148 282.023L386.028 282.91ZM373.71 293.942C373.26 294.463 373.329 295.241 373.864 295.679C374.4 296.118 375.199 296.052 375.649 295.531L373.71 293.942ZM364.798 309.653C365.184 309.086 365.023 308.321 364.44 307.944C363.856 307.568 363.07 307.724 362.685 308.291L364.798 309.653ZM355.989 321.665L357.108 322.244L357.108 322.244L355.989 321.665ZM349.969 330.881C349.685 331.503 349.974 332.232 350.613 332.509C351.252 332.786 352.001 332.506 352.285 331.884L349.969 330.881ZM440.191 248.131C432.374 250.983 424.738 254.449 417.362 258.53L418.615 260.674C425.874 256.658 433.389 253.247 441.082 250.441L440.191 248.131ZM417.362 258.53C405.899 264.873 395.064 272.702 385.148 282.023L386.909 283.798C396.671 274.622 407.336 266.916 418.615 260.674L417.362 258.53ZM385.148 282.023C381.083 285.843 377.27 289.823 373.71 293.942L375.649 295.531C379.154 291.476 382.907 287.559 386.909 283.798L385.148 282.023ZM362.685 308.291C359.854 312.457 357.249 316.727 354.87 321.086L357.108 322.244C359.449 317.955 362.012 313.753 364.798 309.653L362.685 308.291ZM354.87 321.086C353.113 324.305 351.479 327.572 349.969 330.881L352.285 331.884C353.771 328.628 355.379 325.412 357.108 322.244L354.87 321.086Z" fill="#14B8A6"/>
</svg>
